<svg width="170" height="29" viewBox="0 0 170 29" fill="none" xmlns="http://www.w3.org/2000/svg">
<path fill-rule="evenodd" clip-rule="evenodd" d="M80.3252 28.1904H0V0H80.3252V28.1904ZM1.97852 26.3125H78.3467V1.87793H1.97852V26.3125ZM92.9541 7.46484C93.7202 7.46484 94.439 7.58532 95.1094 7.82617C95.7915 8.05493 96.4019 8.3739 96.9404 8.7832C97.4791 9.19265 97.9346 9.67456 98.3057 10.2285C98.6767 10.7704 98.9401 11.3543 99.0957 11.9805H96.833C96.7014 11.6194 96.51 11.2883 96.2588 10.9873C96.0074 10.6742 95.7075 10.4091 95.3604 10.1924C95.0252 9.97569 94.6484 9.80692 94.2295 9.68652C93.8225 9.5661 93.397 9.50586 92.9541 9.50586C92.2839 9.50592 91.6736 9.6264 91.123 9.86719C90.5724 10.096 90.0935 10.4213 89.6865 10.8428C89.2915 11.2522 88.9804 11.7342 88.7529 12.2881C88.5376 12.8419 88.4297 13.4437 88.4297 14.0938C88.4297 14.744 88.5375 15.3464 88.7529 15.9004C88.9803 16.4543 89.2916 16.9418 89.6865 17.3633C90.0935 17.7727 90.5724 18.098 91.123 18.3389C91.6736 18.5676 92.2839 18.6826 92.9541 18.6826C93.397 18.6826 93.8225 18.6224 94.2295 18.502C94.6483 18.3816 95.0253 18.2127 95.3604 17.9961C95.7075 17.7793 96.0074 17.5198 96.2588 17.2188C96.5101 16.9057 96.7014 16.5682 96.833 16.207H99.0957C98.9401 16.8332 98.6767 17.4236 98.3057 17.9775C97.9346 18.5194 97.4791 18.9949 96.9404 19.4043C96.4018 19.8137 95.7916 20.139 95.1094 20.3799C94.439 20.6087 93.7202 20.7236 92.9541 20.7236C92.0088 20.7236 91.1292 20.5548 90.3154 20.2178C89.5015 19.8806 88.7948 19.4171 88.1963 18.8271C87.6097 18.225 87.1487 17.5197 86.8135 16.7129C86.4784 15.9061 86.3105 15.0329 86.3105 14.0938C86.3106 13.1546 86.4783 12.2814 86.8135 11.4746C87.1486 10.6679 87.6098 9.96989 88.1963 9.37988C88.7948 8.77776 89.5014 8.30789 90.3154 7.9707C91.1292 7.63364 92.0087 7.4649 92.9541 7.46484ZM150.171 7.46484C151.081 7.46484 151.936 7.63919 152.738 7.98828C153.54 8.32543 154.235 8.79543 154.821 9.39746C155.42 9.98754 155.893 10.6863 156.24 11.4932C156.587 12.2998 156.761 13.1667 156.761 14.0938C156.761 15.021 156.587 15.8885 156.24 16.6953C155.893 17.5021 155.42 18.2065 154.821 18.8086C154.235 19.3986 153.54 19.8686 152.738 20.2178C151.936 20.5548 151.081 20.7236 150.171 20.7236C149.249 20.7236 148.387 20.5549 147.585 20.2178C146.795 19.8686 146.1 19.3986 145.502 18.8086C144.904 18.2066 144.431 17.502 144.084 16.6953C143.749 15.8885 143.581 15.021 143.581 14.0938C143.581 13.1667 143.749 12.2999 144.084 11.4932C144.431 10.6864 144.904 9.9875 145.502 9.39746C146.1 8.79539 146.795 8.32546 147.585 7.98828C148.387 7.63906 149.249 7.46486 150.171 7.46484ZM18.4141 15.3936C18.4141 18.3092 15.9238 20.6729 12.8525 20.6729C9.78138 20.6727 7.29199 18.3091 7.29199 15.3936H10.5645C10.5645 16.5929 11.5892 17.5663 12.8525 17.5664C14.1159 17.5664 15.1406 16.5929 15.1406 15.3936V7.87012H18.4141V15.3936ZM66.2373 7.51758C70.0592 7.51771 73.1582 10.4371 73.1572 14.0361C73.1572 17.6366 70.0593 20.5555 66.2373 20.5557C62.4152 20.5557 59.3164 17.6366 59.3164 14.0361C59.3166 10.4358 62.4153 7.51758 66.2373 7.51758ZM105.814 7.68164C106.401 7.68169 106.933 7.77158 107.412 7.95215C107.891 8.13275 108.298 8.3859 108.633 8.71094C108.968 9.03608 109.226 9.42162 109.405 9.86719C109.585 10.3127 109.675 10.8003 109.675 11.3301C109.675 12.2333 109.423 12.9802 108.92 13.5703C108.417 14.1482 107.705 14.5395 106.783 14.7441L111.524 20.5068H108.938L104.27 14.8711H103.318V20.5068H101.217V7.68164H105.814ZM120.458 9.7041H114.892V12.9922H119.381V15.0156H114.892V18.4834H120.458V20.5068H112.79V7.68164H120.458V9.7041ZM134.348 20.5068H132.156L130.702 17.1465H124.992L123.556 20.5068H121.383L126.949 7.68164H128.781L134.348 20.5068ZM143.093 9.7041H139.376V20.5068H137.275V9.7041H133.576V7.68164H143.093V9.7041ZM163.663 7.68164C164.249 7.68166 164.782 7.77161 165.261 7.95215C165.74 8.13279 166.147 8.38579 166.482 8.71094C166.818 9.03604 167.074 9.4217 167.254 9.86719C167.433 10.3127 167.523 10.8003 167.523 11.3301C167.523 12.2332 167.272 12.9802 166.77 13.5703C166.267 14.1483 165.554 14.5394 164.633 14.7441L169.373 20.5068H166.787L162.119 14.8711H161.167V20.5068H159.066V7.68164H163.663ZM35.4668 15.6846L39.8398 7.87012H42.7578V20.4385H39.5V13.7227L35.79 20.4385H35.1455L31.4355 13.7402V20.4385H28.1768V7.87012H31.0742L35.4668 15.6846ZM50.9775 7.87012C54.628 7.87014 57.5869 10.6836 57.5869 14.1543C57.5867 17.6249 54.6279 20.4385 50.9775 20.4385H46.0947V7.87012H50.9775ZM24.9629 20.3203H21.626V7.87012H24.9629V20.3203ZM150.171 9.50586C149.537 9.50587 148.944 9.6264 148.394 9.86719C147.855 10.108 147.382 10.4389 146.975 10.8604C146.58 11.2698 146.268 11.7517 146.041 12.3057C145.814 12.8595 145.7 13.4556 145.7 14.0938C145.7 14.732 145.814 15.3289 146.041 15.8828C146.268 16.4366 146.58 16.9243 146.975 17.3457C147.382 17.7551 147.855 18.0804 148.394 18.3213C148.944 18.562 149.537 18.6826 150.171 18.6826C150.793 18.6826 151.374 18.5621 151.913 18.3213C152.464 18.0805 152.936 17.755 153.331 17.3457C153.738 16.9243 154.056 16.4366 154.283 15.8828C154.511 15.3289 154.624 14.732 154.624 14.0938C154.624 13.4556 154.511 12.8595 154.283 12.3057C154.056 11.7517 153.738 11.2698 153.331 10.8604C152.936 10.4391 152.464 10.108 151.913 9.86719C151.374 9.62634 150.793 9.50586 150.171 9.50586ZM49.3428 17.8154H50.5811C52.7093 17.8152 54.4336 16.1758 54.4336 14.1523C54.4333 12.1291 52.7079 10.4905 50.5811 10.4902H49.3428V17.8154ZM66.2373 10.3799C64.0929 10.3799 62.3557 12.0173 62.3555 14.0361C62.3555 16.0563 64.094 17.6934 66.2373 17.6934C68.3817 17.6932 70.1191 16.0562 70.1191 14.0361C70.1189 12.0162 68.3803 10.38 66.2373 10.3799ZM125.8 15.2686H129.895L127.847 10.5352L125.8 15.2686ZM103.318 13.0283H105.562C106.185 13.0283 106.676 12.8837 107.035 12.5947C107.394 12.3057 107.573 11.884 107.573 11.3301C107.573 10.7762 107.394 10.3544 107.035 10.0654C106.676 9.77647 106.185 9.63184 105.562 9.63184H103.318V13.0283ZM161.167 13.0283H163.411C164.034 13.0283 164.525 12.8837 164.884 12.5947C165.243 12.3057 165.423 11.884 165.423 11.3301C165.423 10.7762 165.243 10.3544 164.884 10.0654C164.525 9.77657 164.033 9.63184 163.411 9.63184H161.167V13.0283Z" fill="#001453"/>
</svg>
